# xmcd
#
# Track frame offsets: 
#        150
#        11673
#        26525
#        37524
#        40114
#        49985
#        59652
#        70222
#        82046
#        97680
#        110590
#        120309
#        130721
#        138737
#
# Disc length: 2023 seconds
#
# Revision: 0
# Processed by: cddbd v1.5.2PL0 Copyright (c) Steve Scherf et al.
# Submitted via: ExactAudioCopy v0.95b3
#
DISCID=b407e50e
DTITLE=The Beatles  - Way Beyond Compare - Episode 10 The Star Club (2
DTITLE=8+31 December 1962)  FLAC
DYEAR=1900
DGENRE=
TTITLE0=Be-Bop-A-Lula [Live]
TTITLE1=I Saw Her Standing There
TTITLE2=Hallelujah! I Love Her So [Live]
TTITLE3=Red Hot
TTITLE4=Little Sheila
TTITLE5=I'm Talking About You
TTITLE6=Twist and Shout.
TTITLE7=Mr. Moonlight
TTITLE8=Sweet Little 16
TTITLE9=Besame Mucho [Live]
TTITLE10=Red Sails In The Sunset
TTITLE11=I Remember You
TTITLE12=I'm Gonna Sit Right Down And Cry (Over You) [Partial] [Live]
TTITLE13=Kansas City_Hey Hey Hey Hey!
EXTD=
EXTT0=
EXTT1=
EXTT2=
EXTT3=
EXTT4=
EXTT5=
EXTT6=
EXTT7=
EXTT8=
EXTT9=
EXTT10=
EXTT11=
EXTT12=
EXTT13=
PLAYORDER=
